<svg fill="#000000" xmlns="http://www.w3.org/2000/svg"  viewBox="0 0 512 512" width="30px" height="30px"><path d="M88.554,71C73.848,71,62,83.419,62,98.125V110.8a26.5,26.5,0,1,0,53,0V98.125C115,83.419,103.262,71,88.556,71Z"/><path d="M28.64,293h.116c6.89-1,12.429-6.045,12.349-12.949A4.9,4.9,0,0,1,45.945,275h.161A4.869,4.869,0,0,1,51,278.844L55.887,436.55a5.02,5.02,0,0,0,4.8,4.45h58.436a5.018,5.018,0,0,0,4.8-4.459l4.43-156.873a4.986,4.986,0,0,1,1.858-3.607,4.92,4.92,0,0,1,2.98-1,4.986,4.986,0,0,1,4.831,3.791l.178,2.073a12.43,12.43,0,0,0,12.856,11.614A12.687,12.687,0,0,0,163,279.73V201.887c2-15.228-9.377-28.882-24.562-30.551l-94.57-.169a27.96,27.96,0,0,0-27.916,27.924L16,280.077C16,286.95,21.765,293,28.64,293ZM33,189.668a5,5,0,0,1,10,0v4.713a5,5,0,0,1-10,0Zm0,27.238a5,5,0,0,1,10,0V255.5a5,5,0,0,1-10,0Z"/><path d="M361.889,105.1a5,5,0,0,0,4.091-7.87,131.948,131.948,0,0,0-192.087-26.2L153.729,50.862a5.162,5.162,0,0,0-5.546-1.084A5.089,5.089,0,0,0,145,54.4v46.461A5.291,5.291,0,0,0,150.193,106h46.461a5.078,5.078,0,0,0,3.535-8.641L181,78.146a121.952,121.952,0,0,1,176.794,24.82A4.99,4.99,0,0,0,361.889,105.1Z"/><path d="M361.807,406H315.346a5.078,5.078,0,0,0-3.535,8.641l19.194,19.213a121.952,121.952,0,0,1-176.794-24.82,5,5,0,0,0-8.191,5.739,131.947,131.947,0,0,0,192.087,26.2l20.164,20.165a5,5,0,0,0,3.537,1.464,5.487,5.487,0,0,0,2.009-.38A5.089,5.089,0,0,0,367,457.6V411.141A5.291,5.291,0,0,0,361.807,406Z"/><path d="M211.764,123.664a5,5,0,0,0-7.071,0l-18.742,18.742a5,5,0,0,0,0,7.071l18.742,18.742a4.99,4.99,0,0,0,7.071-7.042L201.558,151h62.624a5,5,0,0,0,0-10H201.558l10.206-10.236A5.034,5.034,0,0,0,211.764,123.664Z"/><path d="M321.686,151h.828a5,5,0,0,0,0-10h-.828a5,5,0,0,0,0,10Z"/><path d="M306.361,151h.543a5,5,0,0,0,0-10h-.543a5,5,0,0,0,0,10Z"/><path d="M284.928,151h.254a5,5,0,0,0,0-10h-.254a5,5,0,0,0,0,10Z"/><path d="M321.686,208h.828a5,5,0,0,0,0-10h-.828a5,5,0,1,0,0,10Z"/><path d="M306.361,208h.543a5,5,0,0,0,0-10h-.543a5,5,0,0,0,0,10Z"/><path d="M284.928,208h.254a5,5,0,0,0,0-10h-.254a5,5,0,0,0,0,10Z"/><path d="M185.951,206.888l18.742,18.747a5,5,0,0,0,7.071,0,5.222,5.222,0,0,0,0-7.253L201.558,208h62.624a5,5,0,0,0,0-10H201.558l10.206-10.025a4.89,4.89,0,0,0,0-6.98,5,5,0,0,0-7.071.045l-18.742,18.765A5.014,5.014,0,0,0,185.951,206.888Z"/><path d="M300.236,388.336a5,5,0,0,0,7.071,0l18.742-18.742a5,5,0,0,0,0-7.071l-18.742-18.742a4.99,4.99,0,0,0-7.071,7.042L310.442,361H247.818a5,5,0,1,0,0,10h62.624l-10.206,10.236A5.034,5.034,0,0,0,300.236,388.336Z"/><path d="M190.314,361h-.828a5,5,0,0,0,0,10h.828a5,5,0,0,0,0-10Z"/><path d="M205.639,361H205.1a5,5,0,0,0,0,10h.543a5,5,0,0,0,0-10Z"/><path d="M227.072,361h-.254a5,5,0,1,0,0,10h.254a5,5,0,0,0,0-10Z"/><path d="M242.818,309a5,5,0,0,0,5,5h62.624l-10.206,10.025a4.91,4.91,0,0,0,3.535,8.4,5.009,5.009,0,0,0,3.536-1.487l18.742-18.753a5.014,5.014,0,0,0,0-7.083l-18.742-18.742a5,5,0,0,0-7.071,0,5.222,5.222,0,0,0,0,7.253L310.442,304H247.818A5,5,0,0,0,242.818,309Z"/><path d="M190.314,304h-.828a5,5,0,0,0,0,10h.828a5,5,0,0,0,0-10Z"/><path d="M205.639,304H205.1a5,5,0,0,0,0,10h.543a5,5,0,0,0,0-10Z"/><path d="M227.072,304h-.254a5,5,0,1,0,0,10h.254a5,5,0,0,0,0-10Z"/><path d="M421.554,71C406.848,71,395,83.419,395,98.125V110.8a26.5,26.5,0,1,0,53,0V98.125C448,83.419,436.262,71,421.556,71Z"/><path d="M471.438,171.336l-94.57-.169a27.96,27.96,0,0,0-27.916,27.924L349,280.077C349,286.95,354.765,293,361.64,293h.116c6.89-1,12.429-6.045,12.349-12.949a4.9,4.9,0,0,1,4.84-5.051h.161A4.869,4.869,0,0,1,384,278.844l4.887,157.706a5.02,5.02,0,0,0,4.8,4.45h58.436a5.018,5.018,0,0,0,4.8-4.459l4.43-156.873a4.986,4.986,0,0,1,1.858-3.607,4.92,4.92,0,0,1,2.98-1,4.986,4.986,0,0,1,4.831,3.791l.178,2.073a12.43,12.43,0,0,0,12.856,11.614A12.687,12.687,0,0,0,496,279.73V201.887C498,186.659,486.623,173.005,471.438,171.336Z"/></svg>